<svg width="82" height="37" viewBox="0 0 82 37" fill="none" xmlns="http://www.w3.org/2000/svg">
<path d="M6.63636 0.350613L6.58916 0.631104L5.99913 0.677852L6.16434 0.350613L6.44755 0L6.63636 0.350613ZM22.2133 24.8935L22.1425 25.8051L21.9065 26.3895L21.4816 27.1608L21.2456 27.9088L20.4668 28.6334L20.1128 29.6853L19.5935 30.5501L19.0507 30.6436L18.8619 30.4566L19.2631 30.0125L19.3103 29.6853L19.4991 29.4515L19.9712 29.0541L20.7028 27.7686L21.0332 26.9037L21.576 25.4779L21.5288 23.608L21.3872 22.5094L21.0804 22.1821L21.0332 21.6445L20.7028 21.177V20.7329L19.924 19.9616L19.4519 19.1669L19.0507 18.863L18.9563 18.489L18.2483 17.8579L17.1154 17.2034L15.0385 17.0398L13.3156 17.2502L12.0411 17.4839L10.6486 17.7177L7.74563 18.676L7.3208 19.1669L6.63636 19.2136L6.40035 19.9616L6.35315 20.7329L6.40035 21.7848L6.35315 23.0704L6.25874 24.0287L6.35315 25.0338H6.91958L7.2736 24.4261L7.60402 24.0287L8.14685 24.1923L8.43007 24.3793L8.38287 24.9403L8.19406 25.7116L7.74563 26.4362L7.60402 27.6751L8.43007 28.3529L9.04371 28.9139L9.58654 29.545L9.96416 30.4099L10.6014 30.5501L11.333 30.8773L12.1591 31.3682L12.7255 31.4617L13.5044 31.7422L14.5192 31.9759L15.5813 31.9292H17.5166L18.2483 31.5084V31.8824L18.0358 32.1863L17.5166 32.607L17.1862 33.1446L16.8794 33.2381L16.5017 33.0278H14.8497L13.5988 32.8875L13.3156 32.5603L12.4423 32.4668L11.7107 31.8824L11.0734 31.6954L10.6014 31.3682L10.1766 31.5084L9.35052 31.228L8.14685 31.4617L6.68357 32.233L4.84266 32.8408L4.51224 33.0278L3.16696 33.7056L2.29371 33.9394L1.60927 33.3784L0.736014 32.42L0.5 31.1812L0.877622 30.1294L0.783217 29.919L1.09004 29.6853L1.32605 29.4515L1.89248 28.5867L1.70367 27.7686L1.89248 27.044L1.65647 26.483L1.89248 25.3844L2.34091 24.8935L3.11976 24.0287V23.1872L3.26136 22.6029L3.11976 20.9667L3.30857 20.4992L3.35577 19.4006L3.26136 18.9097L3.30857 17.2502L3.07255 15.2867L2.81294 14.5621L2.67133 13.4635L2.34091 12.5987L2.1049 10.5885L1.89248 10.0509L1.93969 9.30294L2.1993 8.76533V5.65656L2.34091 4.18398L2.67133 3.55288L3.45018 2.87503L4.37063 2.68803L4.84266 2.40754L6.16434 2.2673H7.46241L9.16171 2.1738L10.4126 1.91669L11.6163 1.72969L12.2535 1.5427L12.7255 1.68294L13.5988 1.77644H15.5813L17.4222 1.96343L18.5315 2.01018L19.4991 2.64129L20.16 3.88012L20.4668 4.97871L20.7028 6.12404V7.29276L20.4668 8.57834L20.3724 9.86392L19.3575 11.5001L18.6259 12.178L17.9414 13.1831L17.3278 13.4168L16.7378 14.0245L15.9589 14.6089L15.4869 14.8426L15.5813 15.1932L16.2185 15.3802L17.1154 15.4737L17.9414 15.7075L18.6259 16.3853L19.3103 16.7593L19.7823 17.7177L20.7028 18.9097L21.2456 19.9616L21.7649 20.6394L21.9537 21.364L22.2133 22.5094L22.1425 23.2807L22.2133 24.0287V24.8935ZM18.2955 29.358L18.201 29.732L17.7526 29.919H17.1862L15.9589 29.4515L15.1565 28.9139L13.9292 28.2127L13.1031 26.9037L12.4423 25.7116L12.1591 24.9403L11.9939 24.1923V23.608L12.2535 23.3275L13.174 22.9301L14.236 23.0704L15.6285 22.8834L16.0061 23.1405L16.1713 23.5612L15.8173 24.0287L15.2981 24.2858L15.3925 25.3376L16.1713 26.2492L16.8794 27.1608L17.4222 28.1659L17.847 28.3529L18.2955 29.358ZM19.924 7.71349L19.7823 6.42791L19.6879 5.9838L19.7823 5.56306L19.0979 4.46448L18.201 3.69313H17.7998L17.5166 3.27239H14.8969L13.7876 3.55288L12.2063 3.92687L10.6014 4.41773L9.04371 5.02546L7.50962 5.93705L6.91958 6.24092L6.25874 6.84865L5.90472 7.71349L5.66871 9.30294L5.71591 10.2145L5.95192 11.7339L5.99913 13.0662L6.21154 13.744V14.8426L6.35315 15.801L6.91958 16.0347L7.79283 16.1516L8.80769 16.0347L10.8846 15.427L12.4423 15.2867L13.3156 15.24L14.708 14.6089L15.3925 14.1414L16.0533 13.744L16.6906 13.0662L17.0682 12.9259L17.5166 12.178L18.2483 11.6404L18.6731 11.0093L19.3575 10.5885L19.4519 9.53668L19.7351 8.95232L19.6879 8.53159L19.924 7.71349Z" fill="#B8DBDF"/>
<path d="M36.8934 28.3997L36.6101 28.5867L36.3505 28.4932V28.2127L36.799 28.0023L36.8934 28.3997ZM37.035 32.5603L36.9878 32.8875L36.6573 33.2381H36.3033L35.9257 32.8408L35.7369 32.233L35.4301 31.7422L35.2413 31.0643L35.0524 30.8773L34.7692 31.0176L34.368 31.2747L33.9432 31.7889L33.2587 32.1863L32.8339 32.607L32.1023 32.981L31.2762 33.2849L30.5682 33.5186L29.9309 33.7056L29.4589 33.8926L28.9633 33.7524L28.2788 33.6589L27.4764 33.3316L26.7448 32.8875L26.2963 32.3265L25.9659 31.6954L25.9187 30.6903V30.0125L26.0603 29.2645L26.5087 28.4932L26.9336 27.7686L27.5236 27.2543L28.1372 26.8102L28.9633 26.67L29.6949 26.5765L30.521 26.3895L31.229 25.9454L32.1495 25.4779L32.5979 25.2909L33.0699 25.1507L33.2587 24.6598L32.8811 23.9819L32.4327 23.3742L31.4886 22.5094L30.521 22.2289L29.7421 22.1821L29.4589 22.2289H28.9633L28.3733 22.5094L27.854 22.8366L27.2168 22.9301H26.5087L25.6827 23.1405H24.951L24.361 22.8366L23.9362 22.4159L23.889 21.8315L24.0306 21.3173L24.5262 20.7329L25.0455 20.0551L25.6827 19.5408L26.3907 19.1669L27.1696 18.5358L27.9012 18.2085L29.2465 17.9514L30.403 17.8579L31.229 18.0916L31.9135 18.4423L32.6451 18.676L33.4712 19.2136L33.896 19.6343L34.3208 20.3122L34.6276 21.177L34.8636 22.0185L35.1941 23.1405L35.5009 23.9819L35.5481 24.7065L35.5009 25.6181L35.7369 26.67L35.8785 27.7686L36.3033 29.6853L36.5629 30.4099L36.799 31.0643L36.9878 31.8824L37.035 32.5603ZM35.0052 32.42L34.8164 32.5603L34.4152 32.42L34.5332 32.1395L34.8164 31.9759L35.0052 32.42ZM33.7544 27.5816L33.5656 27.3011L32.8811 27.1141L32.2911 27.1608L31.7719 27.3946L31.1818 27.5816L30.5682 27.9088L29.9781 28.0023L29.4589 28.2594L29.0105 28.5867L28.7273 29.0074L28.3733 29.545L28.2788 30.0125L28.09 30.4566V31.0176L28.326 31.5084L28.9633 31.6954H29.6477L30.403 31.5084L30.757 31.1345L31.229 31.0176L32.3383 30.2696L32.8811 29.919L33.2587 29.3113L33.66 28.8204L33.7072 28.1659L33.7544 27.5816Z" fill="#B8DBDF"/>
<path d="M39.3007 19.1669L38.9467 19.3538L38.5691 19.05L38.8523 18.676L39.3007 18.7695V19.1669ZM50.0157 30.1294L49.9213 30.7838L49.6853 31.5084L49.3549 32.1395L48.8593 32.607L48.2456 33.1446L47.7028 33.3316L47.1128 33.6589L46.5935 33.8926L45.8619 33.9394H44.375L43.8794 33.5654L43.2185 33.5186L42.2981 33.2849L41.5192 32.981L41.0708 32.607L40.5988 32.42L40.3156 31.8824L40.0559 31.3682V30.6903L40.3156 30.0125L40.5044 29.5918L40.8348 29.1243L41.236 29.0541L41.4248 29.4515L41.236 29.9657L41.1888 30.5501V31.228L41.5192 31.7422L42.1565 31.9759L42.8173 32.233L43.4073 32.4668L44.375 32.5603L44.9886 32.8408L45.7675 32.6538L46.4047 32.4668L46.8768 32.1863L47.514 31.7422L47.986 31.3682L48.34 31.0176L48.3872 30.3631V29.5918L48.1512 29.0074L47.6556 28.3997L46.9712 28.1659L46.1687 27.7686L45.8619 27.4881L44.9886 27.044L44.375 26.67L43.6906 26.3895L43.2657 26.1557L42.6285 25.9921L42.2037 25.9454L41.6136 25.6181L41.0708 25.2909L40.7404 24.7065L40.41 24.2391L40.174 23.608L40.1268 22.8834L40.3156 22.2289L40.3628 21.6445L40.646 20.9667L41.0236 20.4057L41.4248 19.8681L41.5192 19.5876L41.8497 19.1669H42.2981L42.4397 18.676L42.9589 18.5358L43.5018 18.2553L44.139 18.2085L44.847 18.0916L45.7675 17.8112L46.5935 17.6242H47.278L47.9388 17.8112L48.4344 18.0916L49.0009 18.5358L49.3549 18.7695L49.7325 19.3071L49.8741 19.6343V20.3122L49.5437 20.8264L49.2133 21.177L48.6233 21.4108L47.6556 21.5043L46.8768 21.4108L46.2159 21.364L45.4843 21.5043L44.7998 21.8315L44.3278 22.1821L43.8794 22.6496L43.6906 23.3275L43.9738 23.8417L44.4222 24.2391L45.0358 24.3793L45.4843 24.7065L45.9091 25.0805L46.4047 25.4779L46.8295 25.9454L47.278 26.0389L47.6556 26.2492L47.986 26.67L48.4344 26.857L48.8593 27.1141L49.3549 27.5348L49.7325 28.0023L49.7797 28.6802L49.9213 29.4515L50.0157 30.1294Z" fill="#B8DBDF"/>
<path d="M54.736 8.71858L54.3584 8.95232L53.9572 8.85883L54.0752 8.43809L54.4056 8.29785L54.736 8.71858ZM57.1198 9.58343L57.0254 9.95742L56.6241 10.4015L56.2937 10.869V11.3131L56.5297 11.7339L56.7657 12.0611V12.7389L56.5297 13.3233L56.1521 13.7908L55.6565 14.1881L55.0428 14.2349L54.3584 14.1881L53.9572 13.931L53.4851 13.6038L53.0603 13.1129L52.5175 12.4585L52.2815 11.8274L52.1871 11.3599L52.2815 10.9158L52.5175 10.4015L52.8479 10.0042L53.5323 9.63018L54.1224 9.53668L54.9956 9.44318L55.8453 9.20944L56.4353 9.16269L56.8601 9.20944L57.1198 9.58343ZM57.403 19.7278L57.2614 19.9616L56.7657 20.2187L56.4353 20.4992L56.2937 21.0602L56.1993 21.8315L55.9397 22.6029L56.1049 23.2807L55.8925 23.8417L55.8453 24.613L55.7509 25.4311V26.2492L55.8453 27.2543L55.7509 28.0023V28.8204L55.8925 29.4515L56.1049 30.0592L55.8925 30.7838L56.1521 31.4149V32.5135L56.1993 32.9343L56.3881 33.5654L56.4353 34.2432L56.6241 34.7107V35.1548L56.8129 35.5756L56.5769 35.9963L56.2937 36.1132L56.1049 35.9963L55.8925 35.5288L55.7509 34.9912L55.6565 34.5705L55.4205 34.103V33.6589L55.09 32.9343V32.2798L54.9956 31.7889V31.1345L54.8304 30.5501L54.736 29.1243L54.6416 28.7269L54.5944 27.8153L54.6416 27.2076L54.5944 26.5297V25.9454L54.3584 25.4779L53.9572 25.2442L53.674 24.9403L53.3907 24.0287L53.2963 23.5145V21.6445L53.3907 20.8264L53.2491 19.9616L53.2019 19.4006L53.0131 18.863L53.2019 18.302L53.4851 17.8579L53.8628 17.7177L54.4056 17.5774L54.9956 17.7177L55.4205 18.0916L55.8453 18.4423H56.3881L56.7657 18.8162L57.1198 19.05L57.403 19.3071V19.7278Z" fill="#B8DBDF"/>
<path d="M72.4843 21.8783L72.201 22.3691L71.611 22.2756L71.5166 21.8315L71.9414 21.6913L72.4843 21.8783ZM73.2159 19.0032L73.1687 19.3538L72.8147 19.5876L72.201 19.7278L71.5166 19.7746L70.785 19.9616H70.1241L69.3925 20.0083L68.472 20.2187L67.9292 20.0551L67.2684 20.2654L66.7727 20.5927L66.5367 20.9667V21.4108L66.4895 22.1354L66.3007 22.5094V23.0704L66.1591 23.7015L65.8995 24.613L65.8051 25.3844V28.3997L65.8523 29.1243L65.8051 30.0125L65.6163 30.6903L65.5691 31.228L65.4747 32.1395L65.6635 33.7524L65.8523 34.1497L66.1591 34.8042L66.6311 35.1548L67.5044 35.4821L68.0236 35.4353H69.0621L68.8025 35.8093L67.9764 36.1132H66.8671L66.1591 35.9963L65.4275 35.7626L64.743 35.3418L64.035 35.1081L63.3033 34.3367L62.9493 33.5654L62.9021 32.7005L62.7133 31.8357L62.5245 31.228L62.6189 30.3164V29.358L62.5245 28.6334L62.6661 27.9556L62.4301 27.044L62.3357 25.9921L62.2885 25.1507L62.3357 24.3793L62.5245 23.5145V20.4992L61.8872 20.5927L61.2736 20.7797L60.5892 21.0134L60.1171 21.364L59.6687 21.4575L59.3383 21.4108L59.1495 21.177V20.9199L59.2439 20.4992L59.5271 20.2187L60.0227 19.9616L60.542 20.0083L61.1792 19.8681L61.7928 19.7746L62.5245 19.7278L62.6189 19.3071L62.5245 18.6292L62.6189 17.8579L62.6661 16.8528L62.6189 16.1983L62.5245 15.614L62.3357 15.0296V14.5154L62.6189 13.931L63.3033 13.6038L63.7754 13.1129L64.507 12.8324L65.097 12.8792L65.6163 13.1129L66.1591 13.4635L66.3479 13.7908L66.7255 14.2349L66.8671 14.6089L67.2212 15.1932L67.3156 15.4737L67.2684 16.1516L67.0796 16.6658L67.0087 17.2502L66.7727 17.7177L66.8671 18.1618L67.2684 18.4423L67.9292 18.5825L68.5664 18.489H70.3601L70.8794 18.5825L71.7998 18.6292L72.4843 18.8162L72.8147 18.863L73.2159 19.0032Z" fill="#B8DBDF"/>
<path d="M81.5 32.6538L81.4056 33.1446L80.5323 33.8926L80.2963 34.3367L79.9423 34.8042L79.7535 34.9912L79.4231 35.4821L78.5026 36.1599L77.9598 36.2067L77.299 36.1132L76.8977 35.7626L76.6617 35.1081L76.5201 34.8042L75.9301 34.3367L75.7885 34.0329V33.7056L75.6469 33.3316L75.5997 32.8408L76.1897 32.3265L77.299 31.6954L78.3138 31.228H79.6119L80.1783 31.4617L80.3907 31.7889L80.91 31.8824L81.4056 32.1863L81.5 32.6538ZM80.1783 36.3937L79.9423 36.5806L79.6591 36.2067L79.8951 36.043L80.1783 36.1599V36.3937Z" fill="#B8DBDF"/>
</svg>
